<svg xmlns="http://www.w3.org/2000/svg" width="400" height="400"><circle cx="200" cy="200" r="200" fill="#1e4328"/><path d="M192.87 64.87c.46.27 1.07.75 1.35 1.06.71.77 24.81 35.68 24.93 36.1.1.4-1.78 1.4-7.05 3.72-11.82 5.2-21.87 7.43-32.38 7.22l-3.58-.07-.52-.7c-8.84-11.87-26.42-6.8-26.42 7.61v2.09l10.8 43.16c5.94 23.73 10.8 43.28 10.8 43.44 0 .97-10.74 11.54-16.1 15.83-9.8 7.86-20.4 13.08-30.8 15.2-1.85.37-2.37.6-2.23.97.06.15 3.11 4.62 6.78 9.94 15.96 23.08 43.49 62.94 55.65 80.54 13.97 20.24 13.85 20.05 13.57 21.9a4.84 4.84 0 01-7.03 3.63c-1.28-.7-.76 0-11.08-14.91-7.84-11.33-12.83-18.57-47.66-69a178292.1 178292.1 0 00-62.1-89.9c-18.23-26.39-16.65-24-16.9-25.44-.89-5.4 6.05-7.42 9.32-2.71 1.14 1.64 1.08 1.62 3.5 1.13 13.74-2.8 26.5-10.13 39.25-22.58 6-5.84 8.7-8.88 21.23-23.8 18.54-22.08 26.68-29.79 38.88-36.79 10.44-6 24.17-9.77 27.79-7.64M311.7 78.2c1.1.1 2.72.33 3.6.5l2.8.53c3.66.7 5.6 3.3 4.22 5.65-.84 1.44-2.41 2.33-7.72 4.4a835.92 835.92 0 01-16.3 6.39c-3.39 1.28-5.48 3.16-4.6 4.14.65.71 3.22 1.17 9.4 1.69 18.06 1.5 24.9 3.42 24.9 7 0 2.64-3.63 3.67-14.2 4.01-16.88.55-31.03 5.04-51.1 16.23-8.06 4.5-10.76 6-14 7.86-31.1 17.8-49.27 23.1-68.5 19.99-1.37-.22-2.37-.3-2.48-.2-.1.12.68 3.67 1.97 8.85a8050.44 8050.44 0 0015.42 61.17c.34.55 30.89 123.31 30.89 124.11-.03 5.41-7.8 6.53-9.46 1.36-.18-.54-8.56-33.88-18.62-74.08-10.07-40.2-20.05-79.99-22.18-88.4-13.47-53.18-17.22-68.58-17.1-70.12a4.7 4.7 0 014.35-4.24c2.82-.2 4.56 1.28 5.43 4.64.44 1.7.4 1.65 1.98 1.9 15.36 2.43 30.27-.16 48-8.32 6.03-2.78 10.83-5.3 20.8-10.96l8.5-4.81c22.5-12.73 36.63-18.16 50.2-19.28 1.43-.12 2.96-.25 3.4-.3 1.25-.12 8.18.07 10.4.29m-96.1 85c0 .1-.6.85-1.35 1.65-3.2 3.43-6.8 7.65-12.96 15.25-5.19 6.4-5.94 7.23-6.24 6.85-.17-.23-4-15.2-4.73-18.55-.51-2.35-.9-2.12 3.83-2.27 6.9-.21 11.96-.87 17.55-2.3 3.25-.83 3.9-.94 3.9-.63" fill="#fff" fill-rule="evenodd"/></svg>
